<?xml version="1.0" standalone="no"?>
<!DOCTYPE svg PUBLIC "-//W3C//DTD SVG 20010904//EN"
 "http://www.w3.org/TR/2001/REC-SVG-20010904/DTD/svg10.dtd">
<svg version="1.0" xmlns="http://www.w3.org/2000/svg"
 width="1024.000000pt" height="1024.000000pt" viewBox="0 0 1024.000000 1024.000000"
 preserveAspectRatio="xMidYMid meet">
<metadata>
Created by potrace 1.16, written by Peter Selinger 2001-2019
</metadata>
<g transform="translate(0.000000,1024.000000) scale(0.100000,-0.100000)"
fill="#000000" stroke="none">
<path d="M812 5017 c-44 -16 -65 -59 -59 -119 3 -25 10 -55 16 -66 6 -10 13
-33 16 -50 3 -17 10 -44 17 -59 6 -15 12 -31 13 -35 2 -5 4 -10 5 -13 1 -3 4
-9 5 -15 1 -5 4 -12 5 -15 1 -3 3 -8 5 -12 1 -5 8 -21 15 -38 7 -16 14 -32 15
-35 1 -3 9 -22 18 -44 9 -21 17 -42 17 -47 0 -5 4 -17 10 -27 8 -16 28 -59 67
-152 8 -19 26 -60 40 -90 15 -30 29 -62 33 -70 20 -43 140 -266 176 -327 10
-17 35 -57 54 -90 19 -32 37 -62 40 -68 3 -5 26 -42 53 -82 26 -39 47 -76 47
-81 0 -6 7 -13 16 -16 8 -3 12 -10 9 -16 -3 -5 -2 -10 3 -10 8 0 31 -31 84
-115 7 -11 15 -22 18 -25 22 -22 80 -100 80 -108 0 -6 3 -12 8 -14 7 -3 24
-23 82 -98 14 -17 32 -40 40 -49 8 -10 33 -40 55 -66 45 -54 51 -61 185 -206
52 -56 108 -114 125 -128 16 -14 52 -48 80 -76 27 -27 67 -65 89 -83 21 -18
36 -35 34 -38 -3 -2 -14 4 -25 13 -12 10 -31 25 -43 33 -12 8 -28 21 -36 27
-7 7 -16 13 -21 13 -4 0 -22 13 -39 28 -17 15 -44 36 -59 47 -15 11 -40 32
-55 46 -15 14 -43 37 -61 50 -37 26 -59 43 -95 74 -12 11 -42 36 -65 55 -23
19 -54 45 -67 58 -14 12 -50 44 -80 70 -30 26 -67 58 -82 72 -15 14 -65 59
-111 100 -46 41 -106 98 -134 125 -173 169 -181 175 -237 175 -45 0 -54 -4
-82 -34 -26 -27 -32 -41 -31 -74 0 -23 6 -47 13 -54 7 -7 12 -17 12 -24 0 -6
12 -20 28 -29 15 -10 66 -58 113 -107 48 -48 91 -88 95 -88 4 0 22 -15 39 -32
61 -64 174 -168 181 -168 4 0 17 -10 29 -22 12 -13 46 -43 75 -68 30 -25 61
-53 69 -62 9 -10 19 -18 23 -18 5 0 25 -15 44 -32 63 -58 69 -62 122 -103 28
-21 52 -42 52 -46 0 -4 8 -10 18 -13 9 -3 31 -18 47 -34 27 -24 144 -113 219
-167 16 -11 40 -30 53 -42 14 -12 34 -25 44 -28 11 -4 19 -10 19 -14 0 -3 15
-15 33 -26 17 -10 37 -23 42 -27 38 -31 84 -63 195 -135 69 -45 130 -86 136
-91 5 -5 21 -15 35 -22 13 -7 26 -16 29 -19 3 -3 21 -15 40 -25 19 -11 37 -22
40 -25 9 -11 44 -31 73 -42 15 -6 27 -15 27 -20 0 -5 3 -8 8 -7 7 2 133 -68
182 -101 14 -9 123 -66 242 -126 129 -65 212 -113 205 -117 -7 -4 -19 -6 -27
-3 -8 2 -46 7 -85 10 -38 3 -88 7 -110 10 -22 2 -60 6 -85 9 -25 3 -61 7 -80
10 -19 3 -55 8 -80 10 -41 5 -327 48 -410 62 -19 3 -45 7 -57 9 -11 2 -30 6
-41 9 -24 8 -55 14 -102 22 -19 3 -43 7 -52 10 -16 5 -36 9 -88 19 -55 10 -76
15 -105 22 -16 4 -32 7 -35 8 -3 1 -18 4 -35 8 -16 4 -39 9 -50 12 -128 28
-414 104 -610 161 -108 31 -152 37 -179 22 -27 -14 -46 -34 -46 -47 0 -21 -19
-20 -46 2 -16 12 -29 20 -29 18 0 -6 -66 32 -175 99 -52 32 -135 82 -183 111
-49 29 -100 63 -113 76 -13 12 -24 19 -24 15 0 -4 -4 -2 -8 3 -4 6 -20 19 -37
29 -16 11 -34 23 -40 28 -13 11 -114 88 -149 113 -15 11 -36 27 -46 35 -10 8
-33 27 -51 42 -19 14 -44 35 -55 45 -12 10 -46 38 -75 63 -29 25 -66 57 -82
73 -16 15 -37 32 -47 37 -32 17 -95 12 -124 -11 -23 -18 -26 -27 -26 -88 l0
-68 84 -79 c47 -43 99 -90 117 -104 18 -14 37 -29 44 -35 6 -5 31 -26 55 -45
25 -19 52 -40 60 -47 30 -24 128 -98 150 -113 13 -8 43 -30 69 -48 25 -18 89
-60 141 -95 52 -34 100 -65 105 -70 15 -11 228 -137 233 -137 2 0 16 -8 30
-19 97 -69 676 -341 867 -408 38 -13 79 -29 90 -34 12 -6 27 -11 35 -12 8 -2
20 -5 25 -9 9 -5 267 -89 290 -94 9 -1 45 -12 150 -44 17 -5 44 -12 60 -15 17
-3 35 -7 40 -9 27 -8 63 -16 85 -20 14 -2 32 -7 40 -10 8 -3 29 -7 45 -10 17
-2 64 -11 105 -20 41 -8 89 -17 105 -20 17 -2 75 -12 130 -21 55 -9 116 -19
135 -21 19 -3 51 -7 70 -10 34 -4 94 -11 195 -20 331 -29 766 -21 1115 21 92
11 103 13 165 24 33 7 83 14 110 17 28 3 54 8 58 11 26 16 121 12 263 -11 87
-14 179 -28 204 -31 25 -3 61 -8 80 -11 19 -2 60 -7 90 -10 30 -3 75 -7 100
-9 279 -28 716 -23 1025 10 153 17 218 25 225 30 4 2 31 7 60 10 30 4 99 15
155 25 55 11 114 21 130 25 28 5 78 16 135 30 14 3 39 8 55 11 17 3 46 9 65
14 19 5 37 9 40 8 3 -1 14 4 26 10 11 6 34 14 50 17 35 7 44 10 64 18 8 4 24
8 35 10 11 2 27 7 35 10 8 4 24 8 35 10 11 1 26 6 33 10 6 5 12 5 12 1 0 -3 6
-2 13 3 10 9 73 33 100 39 4 1 9 3 12 4 3 1 10 4 15 5 6 1 11 3 13 5 1 1 9 3
17 5 29 7 164 57 192 71 15 8 28 12 28 9 0 -3 11 2 25 11 14 9 25 13 25 9 0
-4 6 -2 13 4 8 6 17 8 20 4 4 -3 7 -1 7 6 0 7 3 10 8 8 4 -3 25 3 46 14 21 10
86 40 145 66 99 44 424 206 446 223 6 4 46 27 90 50 44 24 96 53 115 65 19 12
38 22 42 21 3 -1 17 8 30 20 13 11 45 33 73 49 27 16 54 33 60 37 5 5 39 28
75 51 36 22 67 44 70 47 5 6 72 54 157 114 60 41 85 61 119 94 13 13 24 20 24
16 0 -4 8 1 19 12 10 10 34 31 53 46 19 15 46 37 60 50 14 13 45 39 69 58 108
87 137 139 116 206 -14 46 -47 68 -108 70 -44 2 -53 -1 -91 -35 -24 -21 -56
-49 -71 -62 -15 -13 -45 -40 -65 -59 -21 -19 -53 -46 -72 -60 -18 -14 -39 -31
-46 -37 -7 -7 -15 -13 -19 -13 -6 0 -16 -8 -66 -52 -17 -16 -34 -28 -39 -28
-4 0 -20 -12 -35 -26 -16 -15 -41 -34 -55 -43 -71 -43 -145 -95 -148 -103 -2
-4 -10 -8 -18 -8 -8 0 -14 -4 -14 -10 0 -5 -7 -10 -15 -10 -8 0 -15 -5 -15
-11 0 -5 -4 -8 -9 -4 -6 3 -14 -3 -20 -12 -6 -10 -11 -14 -11 -10 0 5 -17 -4
-37 -20 -46 -35 -126 -85 -188 -117 -30 -16 -62 -34 -125 -74 l-35 -22 -31 35
c-25 28 -39 36 -75 39 -24 1 -60 -3 -79 -11 -19 -8 -36 -14 -37 -14 -2 1 -4 1
-5 0 -2 0 -11 -2 -20 -5 -10 -2 -26 -6 -35 -8 -10 -3 -20 -5 -23 -7 -3 -1 -9
-3 -15 -4 -5 -2 -12 -4 -15 -5 -3 -1 -13 -3 -22 -6 -29 -7 -42 -11 -58 -17
-15 -6 -103 -29 -107 -29 -2 1 -17 -4 -35 -9 -31 -10 -42 -13 -88 -24 -11 -3
-29 -7 -40 -10 -11 -3 -29 -7 -40 -10 -51 -13 -67 -16 -90 -21 -22 -4 -65 -14
-80 -19 -24 -8 -63 -17 -137 -31 -13 -2 -33 -6 -45 -8 -13 -3 -36 -8 -53 -11
-16 -4 -40 -9 -53 -11 -25 -4 -62 -11 -95 -18 -59 -14 -186 -38 -217 -42 -19
-2 -62 -9 -95 -15 -33 -6 -76 -13 -95 -15 -19 -2 -51 -7 -70 -10 -95 -16 -392
-49 -540 -58 l-45 -3 30 13 c17 7 36 13 43 14 6 0 12 5 12 12 0 6 3 8 7 5 3
-4 20 2 37 12 28 17 277 147 371 194 22 11 42 22 45 26 3 3 19 13 35 21 17 8
35 19 40 23 6 4 46 28 90 54 44 25 104 61 133 81 29 19 66 42 82 51 38 21 210
135 231 154 9 8 35 25 58 37 22 13 41 27 41 30 0 4 23 21 50 39 28 18 56 38
63 44 6 7 32 25 57 42 25 16 53 38 63 49 9 10 17 16 17 13 0 -4 9 1 21 11 41
34 58 47 84 66 14 11 35 27 45 35 10 9 31 25 47 36 15 11 40 32 55 46 15 15
29 24 32 21 3 -3 8 3 12 12 3 9 11 16 16 16 6 0 25 16 44 35 18 19 35 35 38
35 3 0 14 8 24 18 10 9 33 28 51 42 18 14 50 41 71 60 21 19 67 60 101 90 238
209 451 416 475 462 14 27 15 37 4 67 -20 55 -55 81 -111 81 -41 0 -54 -5 -96
-41 -26 -22 -67 -59 -89 -82 -23 -23 -76 -73 -118 -112 -42 -38 -98 -91 -125
-117 -27 -27 -52 -48 -56 -48 -4 0 -26 -19 -49 -42 -52 -53 -106 -98 -115 -98
-4 0 -18 -13 -31 -30 -14 -16 -29 -29 -34 -30 -5 0 -21 -12 -36 -27 -34 -36
-79 -73 -86 -73 -3 0 -11 -6 -18 -13 -7 -6 -27 -23 -45 -37 -18 -13 -43 -33
-56 -45 -12 -11 -33 -28 -46 -37 -31 -22 -63 -47 -97 -76 -15 -12 -54 -41 -87
-63 l-60 -41 44 41 c25 22 48 41 52 41 3 0 9 9 12 20 3 11 9 19 14 18 10 -4
403 394 403 408 0 2 8 12 18 22 9 10 31 35 47 56 29 36 36 46 78 95 9 12 17
25 17 29 0 4 9 14 20 22 11 8 20 18 20 23 0 5 12 24 28 41 49 58 69 86 124
171 18 28 38 56 44 62 7 7 22 29 35 50 13 21 29 44 36 51 7 7 13 19 13 27 0 7
4 15 9 17 4 2 23 30 41 63 18 33 45 78 59 100 15 22 35 56 45 75 9 19 23 44
29 55 25 40 41 70 42 75 1 3 38 79 82 170 112 228 143 296 143 313 0 7 3 17 8
21 4 4 7 11 8 14 1 9 12 38 29 77 8 17 28 73 45 125 18 52 34 102 38 110 3 8
6 18 7 23 2 4 3 8 5 10 4 5 11 45 14 82 2 33 -3 46 -30 75 -30 32 -37 35 -87
35 -49 0 -58 -3 -79 -30 -12 -16 -42 -87 -64 -157 -23 -70 -48 -142 -57 -160
-34 -73 -65 -157 -59 -162 3 -3 0 -6 -6 -6 -7 0 -12 -5 -12 -12 0 -14 -130
-301 -140 -308 -4 -3 -26 -43 -49 -90 -24 -47 -48 -91 -53 -97 -6 -7 -7 -13
-4 -13 4 0 -4 -15 -18 -33 -15 -19 -26 -38 -26 -42 0 -15 -247 -401 -273 -427
-10 -9 -17 -21 -17 -26 0 -6 -3 -12 -8 -14 -4 -1 -28 -32 -54 -68 -25 -36 -54
-75 -64 -86 -11 -12 -30 -36 -44 -54 -30 -40 -69 -86 -92 -111 -10 -11 -18
-21 -18 -24 0 -2 -15 -20 -32 -40 -18 -19 -67 -71 -108 -117 -113 -124 -333
-338 -347 -338 -4 0 -21 -16 -37 -35 -16 -19 -33 -35 -38 -35 -5 0 -19 -11
-32 -25 -13 -14 -28 -25 -35 -25 -6 0 -11 -4 -11 -10 0 -5 -12 -16 -27 -24
-16 -8 -45 -31 -65 -50 -21 -20 -38 -33 -38 -29 0 3 -8 -3 -17 -13 -16 -18
-267 -191 -346 -238 -18 -11 -50 -31 -72 -45 -22 -14 -42 -26 -45 -26 -5 -1
-38 -19 -75 -42 -11 -7 -30 -17 -42 -22 -11 -5 -24 -15 -28 -21 -3 -5 -11 -8
-16 -5 -5 4 -9 1 -9 -5 0 -6 -4 -9 -9 -5 -5 3 -16 0 -23 -7 -29 -27 -349 -176
-403 -188 -5 -1 -19 -7 -30 -13 -11 -6 -22 -12 -25 -12 -3 -1 -16 -6 -30 -12
-40 -18 -74 -31 -83 -32 -4 0 -20 -7 -35 -15 -15 -8 -56 -22 -91 -31 -35 -9
-70 -20 -79 -25 -16 -8 -92 -30 -102 -29 -3 0 -18 -5 -35 -11 -16 -7 -38 -14
-47 -16 -10 -2 -28 -7 -40 -10 -13 -3 -30 -7 -38 -9 -8 -2 -17 -4 -20 -5 -3
-1 -9 -3 -15 -5 -5 -1 -12 -3 -15 -5 -5 -2 -39 -9 -67 -12 -7 -1 -13 -6 -13
-11 0 -6 -2 -8 -5 -5 -3 3 -31 -1 -63 -8 -31 -8 -73 -17 -92 -20 -19 -3 -42
-7 -50 -10 -8 -3 -33 -8 -55 -10 -22 -3 -47 -7 -55 -10 -51 -17 -189 -23 -258
-10 -17 3 -44 8 -60 10 -15 2 -72 13 -127 25 -55 11 -111 22 -125 25 -14 3
-61 14 -105 26 -44 11 -90 23 -103 25 -13 3 -42 12 -65 19 -36 12 -90 27 -107
30 -3 1 -9 4 -15 7 -5 4 -25 10 -44 14 -36 8 -374 130 -394 142 -7 4 -17 8
-23 9 -53 8 -598 288 -681 350 -17 13 -34 24 -38 24 -7 0 -127 80 -135 90 -3
3 -23 17 -45 30 -22 13 -47 29 -55 37 -8 7 -60 47 -115 89 -55 42 -101 81
-103 85 -2 5 -8 9 -13 9 -5 0 -21 10 -35 23 -14 12 -38 32 -53 45 -123 107
-363 341 -461 452 -36 40 -73 81 -82 91 -10 11 -18 21 -18 24 0 2 -15 19 -32
38 -39 40 -68 75 -68 82 0 3 -13 19 -30 37 -16 17 -30 34 -30 38 0 4 -8 16
-17 28 -10 11 -25 30 -33 43 -8 12 -23 29 -32 38 -10 8 -18 21 -18 27 0 7 -4
14 -8 16 -5 2 -20 19 -33 39 -97 144 -147 221 -169 257 -14 24 -40 66 -58 94
-19 29 -50 84 -70 123 -20 38 -41 73 -46 77 -6 4 -7 8 -2 8 5 0 2 8 -6 18 -16
19 -163 320 -211 432 -62 146 -147 376 -147 398 0 10 -5 23 -12 30 -7 7 -9 12
-4 12 4 0 -1 14 -11 30 -11 19 -30 34 -53 40 -43 12 -56 12 -98 -3z m7458
-3601 c0 -4 -96 -39 -110 -41 -3 0 -18 -5 -35 -12 -80 -30 -85 -32 -102 -34
-5 0 -14 -5 -20 -11 -7 -6 -13 -7 -13 -3 0 4 -7 2 -15 -5 -8 -7 -15 -9 -15 -5
0 4 -6 3 -12 -3 -11 -8 -164 -59 -203 -68 -5 -1 -53 -14 -105 -28 -52 -15
-103 -29 -112 -32 -37 -9 -59 -14 -80 -19 -13 -3 -34 -8 -48 -11 -14 -3 -34
-7 -45 -9 -11 -2 -31 -6 -45 -10 -24 -5 -62 -13 -107 -21 -13 -2 -33 -6 -45
-9 -68 -13 -272 -45 -333 -51 -27 -3 -66 -7 -85 -9 -142 -15 -254 -19 -530
-19 -173 0 -346 3 -385 6 -38 4 -83 7 -99 7 -34 1 -32 8 4 15 14 2 72 21 130
42 l105 38 210 2 c193 2 276 5 455 19 192 14 409 38 555 60 22 3 56 8 75 10
19 3 49 7 65 9 17 3 48 8 70 11 51 8 94 15 120 20 51 10 233 47 255 51 31 6
132 27 145 30 11 3 51 12 80 18 11 3 43 10 70 16 28 6 65 13 84 16 18 3 47 12
65 20 31 13 56 18 56 10z m-6164 -40 c16 -3 67 -14 114 -25 47 -11 103 -22
125 -26 22 -4 45 -8 50 -9 10 -3 69 -15 95 -20 8 -2 31 -6 50 -9 19 -4 46 -9
60 -11 31 -6 126 -24 160 -31 14 -3 40 -8 58 -10 39 -6 98 -15 132 -21 14 -2
45 -6 70 -9 25 -3 61 -7 80 -10 67 -10 115 -16 163 -20 26 -3 71 -7 100 -10
248 -26 422 -36 672 -39 l210 -2 135 -47 c91 -31 125 -47 105 -47 -16 -1 -61
-4 -100 -8 -169 -14 -792 -6 -909 12 -17 3 -58 8 -91 11 -58 5 -333 47 -385
59 -14 4 -36 8 -50 11 -14 3 -36 7 -50 10 -14 3 -35 7 -48 9 -12 3 -30 7 -40
10 -9 3 -28 7 -42 10 -24 5 -38 8 -92 22 -40 9 -43 10 -63 17 -11 3 -31 8 -45
11 -40 8 -279 82 -355 111 -38 14 -74 27 -80 29 -5 2 -17 6 -25 9 -8 3 -28 9
-44 14 -17 5 -32 15 -34 21 -3 9 3 10 21 3 13 -5 37 -12 53 -15z"/>
<path d="M9150 1351 c-8 -6 -18 -7 -22 -5 -4 3 -8 0 -8 -5 0 -6 -6 -11 -14
-11 -7 0 -19 -7 -26 -15 -7 -8 -16 -12 -21 -9 -5 3 -9 1 -9 -4 0 -4 -19 -19
-42 -32 -24 -12 -68 -36 -98 -53 -30 -16 -70 -40 -90 -52 -19 -12 -45 -25 -57
-29 -11 -4 -27 -13 -33 -21 -7 -8 -21 -15 -31 -15 -11 0 -19 -5 -19 -11 0 -5
-4 -8 -9 -5 -5 4 -11 2 -13 -2 -4 -10 -269 -142 -286 -142 -6 0 -12 -4 -12
-10 0 -5 -8 -10 -18 -10 -10 0 -27 -7 -38 -15 -12 -8 -24 -11 -28 -8 -3 3 -6
1 -6 -6 0 -7 -4 -9 -10 -6 -5 3 -10 3 -10 -2 0 -4 -21 -17 -48 -27 -26 -11
-65 -27 -87 -37 -56 -25 -267 -109 -285 -114 -8 -2 -16 -4 -17 -5 -2 -2 -7 -4
-13 -5 -5 -1 -12 -4 -15 -5 -3 -1 -8 -3 -12 -5 -5 -1 -15 -5 -23 -8 -59 -25
-207 -78 -229 -82 -15 -3 -47 -12 -72 -21 -24 -8 -55 -18 -68 -20 -13 -3 -39
-11 -57 -19 -19 -8 -34 -12 -34 -9 0 3 -8 0 -18 -5 -18 -10 -41 -16 -107 -28
-16 -3 -38 -9 -47 -14 -10 -5 -18 -7 -18 -3 0 3 -7 1 -15 -6 -8 -6 -19 -9 -24
-6 -5 4 -12 2 -16 -3 -3 -5 -13 -10 -23 -9 -9 0 -26 -3 -37 -6 -134 -37 -152
-41 -210 -51 -16 -3 -88 -17 -160 -31 -141 -28 -152 -30 -207 -38 -21 -4 -55
-9 -75 -12 -21 -3 -51 -7 -68 -9 -16 -2 -48 -6 -70 -10 -22 -3 -58 -8 -80 -10
-22 -2 -60 -7 -85 -10 -78 -9 -161 -16 -360 -31 -232 -17 -955 -10 -1200 11
-139 13 -271 27 -370 39 -109 15 -137 18 -155 21 -17 3 -58 9 -130 20 -64 9
-102 16 -115 20 -8 2 -31 7 -50 9 -19 3 -111 21 -205 41 -93 19 -181 37 -195
40 -23 5 -60 14 -85 21 -10 3 -32 8 -78 20 -12 3 -33 7 -47 10 -14 3 -34 8
-45 11 -11 4 -24 8 -30 9 -5 2 -19 5 -30 8 -11 3 -35 9 -52 15 -18 5 -33 8
-33 6 0 -3 -12 0 -27 6 -16 6 -35 12 -43 14 -78 19 -572 177 -635 204 -11 5
-36 14 -55 21 -19 7 -48 18 -65 25 -16 7 -50 20 -75 28 -49 16 -220 87 -286
118 -23 10 -44 19 -48 19 -3 0 -44 18 -91 40 -47 22 -87 40 -90 40 -15 0 -488
242 -511 261 -15 13 -78 15 -109 5 -36 -13 -60 -57 -59 -110 0 -43 5 -53 34
-77 18 -16 47 -35 64 -44 17 -9 72 -38 121 -65 89 -49 169 -89 315 -157 110
-51 171 -79 210 -95 19 -8 59 -26 89 -39 30 -13 55 -22 55 -19 1 2 15 -3 31
-13 33 -18 154 -67 166 -67 5 0 32 -11 61 -24 29 -14 73 -32 98 -40 25 -8 104
-36 175 -61 123 -44 536 -172 581 -181 12 -2 40 -10 63 -19 23 -8 42 -14 44
-14 1 1 20 -4 42 -9 22 -6 51 -13 65 -16 14 -3 34 -7 45 -10 32 -8 98 -24 125
-30 14 -3 75 -17 135 -31 61 -14 121 -27 135 -30 14 -3 36 -7 50 -10 40 -8 83
-16 110 -20 14 -3 36 -7 50 -10 25 -6 57 -11 120 -20 19 -3 46 -7 60 -10 23
-5 44 -8 128 -19 18 -3 45 -7 60 -10 15 -3 54 -8 87 -11 33 -4 76 -8 95 -11
19 -2 55 -6 79 -8 25 -3 67 -8 95 -11 202 -22 418 -30 811 -30 350 0 516 5
685 20 124 11 225 22 287 30 24 3 60 7 80 10 65 8 127 16 148 20 20 4 71 11
135 21 19 3 44 7 55 9 11 2 36 7 55 10 19 4 44 8 55 10 11 2 34 6 50 9 17 3
41 8 55 12 14 3 32 7 40 8 8 2 26 6 40 9 14 4 36 9 50 12 14 2 43 9 65 15 22
6 51 13 65 16 14 3 59 14 100 25 41 11 89 22 105 25 17 3 44 12 62 19 18 8 48
16 68 19 20 3 51 13 70 20 19 8 35 12 35 9 0 -3 7 0 15 7 8 7 15 10 15 7 0 -3
16 1 35 9 19 8 35 11 35 8 0 -4 7 -1 15 6 8 7 15 9 15 5 0 -4 7 -2 15 5 8 7
15 9 15 5 0 -4 7 -2 15 5 8 7 15 9 15 5 0 -4 7 -2 15 5 8 7 15 9 15 5 0 -4 6
-3 13 2 6 6 37 18 67 28 30 10 69 23 85 30 74 30 141 55 149 55 9 0 69 26 108
46 15 8 31 15 35 16 16 1 39 10 65 24 15 8 30 15 33 15 11 0 182 78 360 165
120 58 217 109 370 194 33 18 75 40 93 49 17 8 32 19 32 23 0 4 4 8 9 8 21 0
133 74 161 107 52 59 32 148 -40 177 -47 19 -50 19 -70 7z"/>
</g>
</svg>
